<svg xmlns="http://www.w3.org/2000/svg" viewBox="0 0 128 128"><g stroke="#8e6435" stroke-width="4" stroke-linejoin="round"><path d="m17 60 57-32 37 20-1 36-58 29-37-22Z" fill="#c79740"/><path d="m17 60 37 21 57-33-37-20Z" fill="#f3cf71"/><path d="m54 81-2 32m22-85-2 13m35 39-12 1" fill="none"/><path d="m48 53 24-13 13 7-24 14Z" fill="#e3b255" stroke-width="3"/><path d="m72 66 10-6m-5 30 10-5m-55-2 8 5" fill="none" stroke-width="3" stroke-linecap="round"/></g><path d="m28 59 20 11m15-28 7-4" fill="none" stroke="#fff0b1" stroke-width="5" stroke-linecap="round"/></svg>
